<?xml version="1.0" encoding="UTF-8"?>
<svg width="38px" height="67px" viewBox="0 0 38 67" version="1.1" xmlns="http://www.w3.org/2000/svg" xmlns:xlink="http://www.w3.org/1999/xlink">
    <!-- Generator: Sketch 50 (54983) - http://www.bohemiancoding.com/sketch -->
    <title>Group 2</title>
    <desc>Created with Sketch.</desc>
    <defs>
        <path d="M7.22187854,16.8148681 C7.06045021,16.1601885 6.86570215,15.5037951 6.67727335,14.8685389 C14.7969462,11.4780298 22.3547795,5.61790491 27.2746096,0 C27.6801911,0.846056251 29.4047742,4.65873648 29.829888,6.13547882 C24.7848217,10.1749547 16.2377372,14.8982451 7.22187854,16.8148681 M26.5690356,49.8452241 C26.5690356,54.9158488 21.703781,62.8159919 14.7790225,62.8159919 C9.0790512,62.8159919 7.05056919,58.0424294 7.05056919,54.5033893 C7.05056919,44.5746535 22.2931955,43.9616769 26.5690356,43.8594189 L26.5690356,49.8452241 Z M32.9520613,60.6765722 L32.9520613,34.9429801 C32.9520613,25.8625857 30.6937881,19.2186733 17.6473914,19.2186733 C5.24670809,19.2186733 1.36783225,25.1644893 0.689373668,30.5264636 L8.16620557,30.5264636 C8.66600148,25.2404687 11.1891091,21.6025982 17.3417691,21.6025982 C26.8361679,21.6025982 26.6971442,30.0688734 26.6971442,36.7721982 L26.6971442,41.4777792 C17.2297459,41.7748415 0,42.6557454 0,55.8247452 C0,62.3783963 4.53378082,67 11.4436029,67 C18.9353712,67 22.4167082,63.0473577 26.6971442,58.0521411 L26.6971442,65.8837313 L38,65.8837313 L38,64.3310096 C34.0855065,63.5535062 33.0893616,63.4044038 32.9520613,60.6765722 Z" id="path-1"></path>
    </defs>
    <g id="FINALS" stroke="none" stroke-width="1" fill="none" fill-rule="evenodd">
        <g id="Email-Externo---Renda-Fixa-Copy-18" transform="translate(-48.000000, -47.000000)">
            <g id="Group-2" transform="translate(48.000000, 47.000000)">
                <mask id="mask-2" fill="white">
                    <use xlink:href="#path-1"></use>
                </mask>
                <use id="Agora-Copy" fill="#13383D" xlink:href="#path-1"></use>
            </g>
        </g>
    </g>
</svg>